<?xml version="1.0" standalone="no"?>
<!DOCTYPE svg PUBLIC "-//W3C//DTD SVG 20010904//EN"
 "http://www.w3.org/TR/2001/REC-SVG-20010904/DTD/svg10.dtd">
<svg version="1.0" xmlns="http://www.w3.org/2000/svg"
 width="300.000000pt" height="300.000000pt" viewBox="0 0 300.000000 300.000000"
 preserveAspectRatio="xMidYMid meet">
<metadata>
Created by potrace 1.11, written by Peter Selinger 2001-2013
</metadata>
<g transform="translate(0.000000,300.000000) scale(0.100000,-0.100000)"
fill="#000000" stroke="none">
<path d="M1400 2864 c-144 -28 -273 -118 -347 -242 -35 -59 -73 -170 -73 -214
l0 -38 143 0 142 0 0 -42 -1 -43 -144 0 -145 0 2 -90 c1 -49 2 -100 2 -111 1
-21 5 -21 164 -22 89 0 168 -1 175 -1 7 -1 12 -16 12 -41 0 -46 23 -42 -202
-42 l-148 0 0 -109 c0 -80 3 -109 13 -110 6 0 71 -1 143 -1 l132 -1 -2 -41 -1
-41 -120 -2 c-66 0 -130 -2 -143 -2 -21 -1 -22 -4 -16 -48 28 -211 192 -390
404 -440 31 -7 92 -11 140 -9 246 10 445 187 489 436 5 30 8 57 6 59 -2 1 -68
3 -148 3 l-143 -1 -3 43 -2 43 142 -1 c84 -1 143 3 147 9 4 6 7 57 7 115 l1
105 -178 -2 -177 -1 2 43 2 43 160 0 c88 1 166 1 173 1 9 1 12 30 12 111 l0
110 -147 -2 -148 -3 4 43 3 42 145 0 144 0 -6 56 c-31 289 -320 495 -615 438z"/>
<path d="M428 2853 c-22 -5 -92 -97 -117 -154 -65 -145 -60 -303 11 -440 56
-107 115 -156 146 -123 19 21 14 47 -17 84 -132 161 -131 373 2 542 41 52 28
102 -25 91z"/>
<path d="M2524 2825 c-5 -19 2 -35 28 -68 136 -165 132 -398 -9 -549 -30 -32
-26 -72 9 -81 17 -5 31 3 59 33 166 175 166 482 1 663 -34 36 -79 37 -88 2z"/>
<path d="M575 2646 c-63 -82 -73 -180 -27 -266 32 -62 57 -82 90 -69 30 11 28
42 -4 85 -38 50 -39 126 -1 180 28 41 35 78 17 89 -29 18 -51 12 -75 -19z"/>
<path d="M2352 2658 c-18 -18 -15 -38 15 -81 39 -56 38 -126 0 -184 -34 -49
-32 -74 5 -87 23 -8 30 -6 48 15 58 67 78 176 46 252 -35 86 -80 119 -114 85z"/>
<path d="M760 2015 c-13 -16 -17 -332 -5 -416 24 -172 109 -339 232 -455 112
-105 285 -185 428 -197 l40 -3 2 -252 c1 -139 -2 -252 -5 -252 -4 -1 -66 -2
-137 -3 -146 -2 -171 -11 -201 -69 -20 -39 -24 -212 -5 -231 18 -18 768 -17
784 2 13 15 15 169 4 213 -4 15 -24 40 -44 55 -35 27 -41 28 -164 29 -70 1
-131 4 -136 7 -10 7 -10 483 0 493 4 5 15 9 25 10 86 12 115 19 176 42 187 68
348 214 424 384 37 80 49 113 55 148 4 19 9 46 12 60 3 14 6 114 6 224 1 218
-3 233 -54 220 -27 -6 -27 -7 -27 -93 -1 -326 -13 -408 -78 -541 -49 -100
-176 -230 -277 -282 -196 -102 -441 -103 -622 -2 -156 86 -261 208 -319 370
-33 90 -36 119 -38 342 -2 157 -5 195 -16 202 -22 14 -46 12 -60 -5z"/>
</g>
</svg>
